<?xml version="1.0" standalone="no"?>
<!DOCTYPE svg PUBLIC "-//W3C//DTD SVG 20010904//EN"
 "http://www.w3.org/TR/2001/REC-SVG-20010904/DTD/svg10.dtd">
<svg version="1.0" xmlns="http://www.w3.org/2000/svg"
 width="490.000000pt" height="509.000000pt" viewBox="0 0 490.000000 509.000000"
 preserveAspectRatio="xMidYMid meet">

<g transform="translate(0.000000,509.000000) scale(0.100000,-0.100000)"
fill="#000000" stroke="none">
<path d="M2162 5031 c-25 -47 -261 -458 -347 -606 -29 -49 -144 -250 -255
-445 -112 -195 -235 -411 -275 -480 -40 -69 -197 -343 -350 -610 -153 -267
-335 -584 -405 -705 -70 -121 -156 -272 -192 -335 -35 -63 -124 -217 -196
-343 -73 -125 -132 -229 -132 -232 0 -3 234 -5 520 -5 286 0 520 -2 520 -5 0
-3 -77 -147 -170 -320 -94 -172 -173 -321 -176 -330 -6 -14 24 -15 282 -13
l289 3 65 130 c36 72 256 514 489 983 232 468 427 852 432 852 9 0 68 -87 389
-580 74 -113 199 -304 279 -425 249 -379 292 -447 288 -452 -3 -2 -208 -4
-456 -3 -247 0 -462 -2 -476 -6 l-25 -6 0 -249 0 -249 790 0 790 0 0 258 0
257 -353 530 c-193 292 -547 824 -785 1183 -238 358 -437 652 -441 652 -9 0
-38 -49 -121 -205 -24 -44 -113 -208 -198 -365 -86 -157 -178 -328 -206 -381
-28 -52 -130 -240 -226 -417 l-175 -322 -183 0 -184 0 53 98 c28 53 120 221
204 372 84 151 236 426 337 610 102 184 259 468 349 630 89 162 174 315 187
340 13 25 39 73 58 106 l34 61 -2 534 -3 534 -23 -44z"/>
<path d="M2330 4536 l0 -528 68 -104 c76 -117 603 -924 1045 -1599 162 -247
347 -531 412 -630 64 -99 172 -264 238 -367 l122 -187 337 0 337 -1 -96 148
c-123 188 -187 286 -358 552 -77 118 -163 251 -192 295 -110 170 -230 355
-483 745 -290 449 -472 729 -690 1063 -80 122 -169 261 -199 307 -47 74 -350
542 -492 760 l-49 75 0 -529z"/>
</g>
</svg>
